<?xml version="1.0" encoding="UTF-8"?>
<svg xmlns="http://www.w3.org/2000/svg" xmlns:xlink="http://www.w3.org/1999/xlink" width="50px" height="50px" viewBox="0 0 50 50" version="1.1">
<g id="surface1">
<path style=" stroke:none;fill-rule:nonzero;fill:rgb(100%,100%,100%);fill-opacity:1;" d="M 6.25 15.625 L 43.75 15.625 C 45.476562 15.625 46.875 14.226562 46.875 12.5 C 46.875 10.773438 45.476562 9.375 43.75 9.375 L 6.25 9.375 C 4.523438 9.375 3.125 10.773438 3.125 12.5 C 3.125 14.226562 4.523438 15.625 6.25 15.625 Z M 43.75 21.875 L 6.25 21.875 C 4.523438 21.875 3.125 23.273438 3.125 25 C 3.125 26.726562 4.523438 28.125 6.25 28.125 L 43.75 28.125 C 45.476562 28.125 46.875 26.726562 46.875 25 C 46.875 23.273438 45.476562 21.875 43.75 21.875 Z M 43.75 34.375 L 6.25 34.375 C 4.523438 34.375 3.125 35.773438 3.125 37.5 C 3.125 39.226562 4.523438 40.625 6.25 40.625 L 43.75 40.625 C 45.476562 40.625 46.875 39.226562 46.875 37.5 C 46.875 35.773438 45.476562 34.375 43.75 34.375 Z M 43.75 34.375 "/>
</g>
</svg>
